<mxfile host="" modified="2021-02-20T08:08:54.986Z" agent="5.0 (Windows NT 6.2; Win64; x64) AppleWebKit/537.36 (KHTML, like Gecko) Chrome/84.0.4147.105 Safari/537.36" etag="hbD7sw2QXoMc9_YGO1Wt" version="13.7.9" type="embed"><diagram id="U3FupeBdQpJO2BwBv6Ng" name="Page-1"><mxGraphModel dx="746" dy="532" grid="1" gridSize="10" guides="1" tooltips="1" connect="1" arrows="1" fold="1" page="1" pageScale="1" pageWidth="827" pageHeight="1169" math="0" shadow="0"><root><mxCell id="0"/><mxCell id="1" parent="0"/><mxCell id="x8lS3_IG5x0d_vdqBzvw-39" value="Version 0.1 pour le 12 mars" style="whiteSpace=wrap;html=1;" parent="1" vertex="1"><mxGeometry x="10" y="1320" width="280" height="40" as="geometry"/></mxCell><mxCell id="x8lS3_IG5x0d_vdqBzvw-40" value="Version 1.0 pour le 2 avril" style="whiteSpace=wrap;html=1;" parent="1" vertex="1"><mxGeometry x="510" y="1300.5" width="280" height="40" as="geometry"/></mxCell><mxCell id="6" value="" style="shape=table;html=1;whiteSpace=wrap;startSize=0;container=1;collapsible=0;childLayout=tableLayout;" parent="1" vertex="1"><mxGeometry y="1700" width="820" height="460.9999999999998" as="geometry"/></mxCell><mxCell id="7" value="" style="shape=partialRectangle;html=1;whiteSpace=wrap;collapsible=0;dropTarget=0;pointerEvents=0;fillColor=none;top=0;left=0;bottom=0;right=0;points=[[0,0.5],[1,0.5]];portConstraint=eastwest;" parent="6" vertex="1"><mxGeometry width="820" height="50" as="geometry"/></mxCell><mxCell id="8" value="ACTION" style="shape=partialRectangle;html=1;whiteSpace=wrap;connectable=0;overflow=hidden;fillColor=none;top=0;left=0;bottom=0;right=0;" parent="7" vertex="1"><mxGeometry width="274" height="50" as="geometry"/></mxCell><mxCell id="9" value="CONDITION" style="shape=partialRectangle;html=1;whiteSpace=wrap;connectable=0;overflow=hidden;fillColor=none;top=0;left=0;bottom=0;right=0;" parent="7" vertex="1"><mxGeometry x="274" width="272" height="50" as="geometry"/></mxCell><mxCell id="10" value="REACTION" style="shape=partialRectangle;html=1;whiteSpace=wrap;connectable=0;overflow=hidden;fillColor=none;top=0;left=0;bottom=0;right=0;" parent="7" vertex="1"><mxGeometry x="546" width="274" height="50" as="geometry"/></mxCell><mxCell id="11" value="" style="shape=partialRectangle;html=1;whiteSpace=wrap;collapsible=0;dropTarget=0;pointerEvents=0;fillColor=none;top=0;left=0;bottom=0;right=0;points=[[0,0.5],[1,0.5]];portConstraint=eastwest;" parent="6" vertex="1"><mxGeometry y="50" width="820" height="28" as="geometry"/></mxCell><mxCell id="12" value="Lancer le programme" style="shape=partialRectangle;html=1;whiteSpace=wrap;connectable=0;overflow=hidden;fillColor=none;top=0;left=0;bottom=0;right=0;" parent="11" vertex="1"><mxGeometry width="274" height="28" as="geometry"/></mxCell><mxCell id="13" value="&lt;span lang=&quot;FR-CH&quot; style=&quot;font-size: 11.0pt ; line-height: 107% ; font-family: &amp;#34;calibri&amp;#34; , sans-serif&quot;&gt;Avoir le programme&lt;/span&gt;" style="shape=partialRectangle;html=1;whiteSpace=wrap;connectable=0;overflow=hidden;fillColor=none;top=0;left=0;bottom=0;right=0;" parent="11" vertex="1"><mxGeometry x="274" width="272" height="28" as="geometry"/></mxCell><mxCell id="14" value="Programme est lancé" style="shape=partialRectangle;html=1;whiteSpace=wrap;connectable=0;overflow=hidden;fillColor=none;top=0;left=0;bottom=0;right=0;" parent="11" vertex="1"><mxGeometry x="546" width="274" height="28" as="geometry"/></mxCell><mxCell id="15" value="" style="shape=partialRectangle;html=1;whiteSpace=wrap;collapsible=0;dropTarget=0;pointerEvents=0;fillColor=none;top=0;left=0;bottom=0;right=0;points=[[0,0.5],[1,0.5]];portConstraint=eastwest;" parent="6" vertex="1"><mxGeometry y="78" width="820" height="29" as="geometry"/></mxCell><mxCell id="16" value="affiche les règles" style="shape=partialRectangle;html=1;whiteSpace=wrap;connectable=0;overflow=hidden;fillColor=none;top=0;left=0;bottom=0;right=0;" parent="15" vertex="1"><mxGeometry width="274" height="29" as="geometry"/></mxCell><mxCell id="17" value="avoir lancé le programme" style="shape=partialRectangle;html=1;whiteSpace=wrap;connectable=0;overflow=hidden;fillColor=none;top=0;left=0;bottom=0;right=0;" parent="15" vertex="1"><mxGeometry x="274" width="272" height="29" as="geometry"/></mxCell><mxCell id="18" value="les régles sont affiché" style="shape=partialRectangle;html=1;whiteSpace=wrap;connectable=0;overflow=hidden;fillColor=none;top=0;left=0;bottom=0;right=0;" parent="15" vertex="1"><mxGeometry x="546" width="274" height="29" as="geometry"/></mxCell><mxCell id="19" value="" style="shape=partialRectangle;html=1;whiteSpace=wrap;collapsible=0;dropTarget=0;pointerEvents=0;fillColor=none;top=0;left=0;bottom=0;right=0;points=[[0,0.5],[1,0.5]];portConstraint=eastwest;" parent="6" vertex="1"><mxGeometry y="107" width="820" height="28" as="geometry"/></mxCell><mxCell id="20" value="appuyer sur &quot;jouer&quot;" style="shape=partialRectangle;html=1;whiteSpace=wrap;connectable=0;overflow=hidden;fillColor=none;top=0;left=0;bottom=0;right=0;" parent="19" vertex="1"><mxGeometry width="274" height="28" as="geometry"/></mxCell><mxCell id="21" value="" style="shape=partialRectangle;html=1;whiteSpace=wrap;connectable=0;overflow=hidden;fillColor=none;top=0;left=0;bottom=0;right=0;" parent="19" vertex="1"><mxGeometry x="274" width="272" height="28" as="geometry"/></mxCell><mxCell id="22" value="une partie est lancé" style="shape=partialRectangle;html=1;whiteSpace=wrap;connectable=0;overflow=hidden;fillColor=none;top=0;left=0;bottom=0;right=0;" parent="19" vertex="1"><mxGeometry x="546" width="274" height="28" as="geometry"/></mxCell><mxCell id="23" value="" style="shape=partialRectangle;html=1;whiteSpace=wrap;collapsible=0;dropTarget=0;pointerEvents=0;fillColor=none;top=0;left=0;bottom=0;right=0;points=[[0,0.5],[1,0.5]];portConstraint=eastwest;" parent="6" vertex="1"><mxGeometry y="135" width="820" height="29" as="geometry"/></mxCell><mxCell id="24" value="choisir sur quel case tirer" style="shape=partialRectangle;html=1;whiteSpace=wrap;connectable=0;overflow=hidden;fillColor=none;top=0;left=0;bottom=0;right=0;" parent="23" vertex="1"><mxGeometry width="274" height="29" as="geometry"/></mxCell><mxCell id="25" value="" style="shape=partialRectangle;html=1;whiteSpace=wrap;connectable=0;overflow=hidden;fillColor=none;top=0;left=0;bottom=0;right=0;" parent="23" vertex="1"><mxGeometry x="274" width="272" height="29" as="geometry"/></mxCell><mxCell id="26" value="un coup tirer sur la case choisie" style="shape=partialRectangle;html=1;whiteSpace=wrap;connectable=0;overflow=hidden;fillColor=none;top=0;left=0;bottom=0;right=0;" parent="23" vertex="1"><mxGeometry x="546" width="274" height="29" as="geometry"/></mxCell><mxCell id="27" value="" style="shape=partialRectangle;html=1;whiteSpace=wrap;collapsible=0;dropTarget=0;pointerEvents=0;fillColor=none;top=0;left=0;bottom=0;right=0;points=[[0,0.5],[1,0.5]];portConstraint=eastwest;" parent="6" vertex="1"><mxGeometry y="164" width="820" height="28" as="geometry"/></mxCell><mxCell id="28" value="" style="shape=partialRectangle;html=1;whiteSpace=wrap;connectable=0;overflow=hidden;fillColor=none;top=0;left=0;bottom=0;right=0;" parent="27" vertex="1"><mxGeometry width="274" height="28" as="geometry"/></mxCell><mxCell id="29" value="si bateau touché" style="shape=partialRectangle;html=1;whiteSpace=wrap;connectable=0;overflow=hidden;fillColor=none;top=0;left=0;bottom=0;right=0;" parent="27" vertex="1"><mxGeometry x="274" width="272" height="28" as="geometry"/></mxCell><mxCell id="30" value="affiche &quot;touché&quot;" style="shape=partialRectangle;html=1;whiteSpace=wrap;connectable=0;overflow=hidden;fillColor=none;top=0;left=0;bottom=0;right=0;" parent="27" vertex="1"><mxGeometry x="546" width="274" height="28" as="geometry"/></mxCell><mxCell id="31" value="" style="shape=partialRectangle;html=1;whiteSpace=wrap;collapsible=0;dropTarget=0;pointerEvents=0;fillColor=none;top=0;left=0;bottom=0;right=0;points=[[0,0.5],[1,0.5]];portConstraint=eastwest;" parent="6" vertex="1"><mxGeometry y="192" width="820" height="29" as="geometry"/></mxCell><mxCell id="32" value="" style="shape=partialRectangle;html=1;whiteSpace=wrap;connectable=0;overflow=hidden;fillColor=none;top=0;left=0;bottom=0;right=0;" parent="31" vertex="1"><mxGeometry width="274" height="29" as="geometry"/></mxCell><mxCell id="33" value="si bateau coulé" style="shape=partialRectangle;html=1;whiteSpace=wrap;connectable=0;overflow=hidden;fillColor=none;top=0;left=0;bottom=0;right=0;" parent="31" vertex="1"><mxGeometry x="274" width="272" height="29" as="geometry"/></mxCell><mxCell id="34" value="afiche &quot;coulé&quot;" style="shape=partialRectangle;html=1;whiteSpace=wrap;connectable=0;overflow=hidden;fillColor=none;top=0;left=0;bottom=0;right=0;" parent="31" vertex="1"><mxGeometry x="546" width="274" height="29" as="geometry"/></mxCell><mxCell id="35" value="" style="shape=partialRectangle;html=1;whiteSpace=wrap;collapsible=0;dropTarget=0;pointerEvents=0;fillColor=none;top=0;left=0;bottom=0;right=0;points=[[0,0.5],[1,0.5]];portConstraint=eastwest;" parent="6" vertex="1"><mxGeometry y="221" width="820" height="28" as="geometry"/></mxCell><mxCell id="36" value="" style="shape=partialRectangle;html=1;whiteSpace=wrap;connectable=0;overflow=hidden;fillColor=none;top=0;left=0;bottom=0;right=0;" parent="35" vertex="1"><mxGeometry width="274" height="28" as="geometry"/></mxCell><mxCell id="37" value="si touche rien" style="shape=partialRectangle;html=1;whiteSpace=wrap;connectable=0;overflow=hidden;fillColor=none;top=0;left=0;bottom=0;right=0;" parent="35" vertex="1"><mxGeometry x="274" width="272" height="28" as="geometry"/></mxCell><mxCell id="38" value="affiche &quot;Plouf/Rien&quot;" style="shape=partialRectangle;html=1;whiteSpace=wrap;connectable=0;overflow=hidden;fillColor=none;top=0;left=0;bottom=0;right=0;" parent="35" vertex="1"><mxGeometry x="546" width="274" height="28" as="geometry"/></mxCell><mxCell id="39" value="" style="shape=partialRectangle;html=1;whiteSpace=wrap;collapsible=0;dropTarget=0;pointerEvents=0;fillColor=none;top=0;left=0;bottom=0;right=0;points=[[0,0.5],[1,0.5]];portConstraint=eastwest;" parent="6" vertex="1"><mxGeometry y="249" width="820" height="41" as="geometry"/></mxCell><mxCell id="40" value="" style="shape=partialRectangle;html=1;whiteSpace=wrap;connectable=0;overflow=hidden;fillColor=none;top=0;left=0;bottom=0;right=0;" parent="39" vertex="1"><mxGeometry width="274" height="41" as="geometry"/></mxCell><mxCell id="41" value="si tous les bateaux coulé" style="shape=partialRectangle;html=1;whiteSpace=wrap;connectable=0;overflow=hidden;fillColor=none;top=0;left=0;bottom=0;right=0;" parent="39" vertex="1"><mxGeometry x="274" width="272" height="41" as="geometry"/></mxCell><mxCell id="42" value="affiche &quot;tu as gagner en (nbdetire) tire&quot;" style="shape=partialRectangle;html=1;whiteSpace=wrap;connectable=0;overflow=hidden;fillColor=none;top=0;left=0;bottom=0;right=0;" parent="39" vertex="1"><mxGeometry x="546" width="274" height="41" as="geometry"/></mxCell><mxCell id="43" value="" style="shape=partialRectangle;html=1;whiteSpace=wrap;collapsible=0;dropTarget=0;pointerEvents=0;fillColor=none;top=0;left=0;bottom=0;right=0;points=[[0,0.5],[1,0.5]];portConstraint=eastwest;" parent="6" vertex="1"><mxGeometry y="290" width="820" height="28" as="geometry"/></mxCell><mxCell id="44" value="ecrire sont pseudo" style="shape=partialRectangle;html=1;whiteSpace=wrap;connectable=0;overflow=hidden;fillColor=none;top=0;left=0;bottom=0;right=0;" parent="43" vertex="1"><mxGeometry width="274" height="28" as="geometry"/></mxCell><mxCell id="45" value="partie terminé" style="shape=partialRectangle;html=1;whiteSpace=wrap;connectable=0;overflow=hidden;fillColor=none;top=0;left=0;bottom=0;right=0;" parent="43" vertex="1"><mxGeometry x="274" width="272" height="28" as="geometry"/></mxCell><mxCell id="46" value="affiche les scores" style="shape=partialRectangle;html=1;whiteSpace=wrap;connectable=0;overflow=hidden;fillColor=none;top=0;left=0;bottom=0;right=0;" parent="43" vertex="1"><mxGeometry x="546" width="274" height="28" as="geometry"/></mxCell><mxCell id="47" value="" style="shape=partialRectangle;html=1;whiteSpace=wrap;collapsible=0;dropTarget=0;pointerEvents=0;fillColor=none;top=0;left=0;bottom=0;right=0;points=[[0,0.5],[1,0.5]];portConstraint=eastwest;" parent="6" vertex="1"><mxGeometry y="318" width="820" height="29" as="geometry"/></mxCell><mxCell id="48" value="" style="shape=partialRectangle;html=1;whiteSpace=wrap;connectable=0;overflow=hidden;fillColor=none;top=0;left=0;bottom=0;right=0;" parent="47" vertex="1"><mxGeometry width="274" height="29" as="geometry"/></mxCell><mxCell id="49" value="" style="shape=partialRectangle;html=1;whiteSpace=wrap;connectable=0;overflow=hidden;fillColor=none;top=0;left=0;bottom=0;right=0;" parent="47" vertex="1"><mxGeometry x="274" width="272" height="29" as="geometry"/></mxCell><mxCell id="50" value="" style="shape=partialRectangle;html=1;whiteSpace=wrap;connectable=0;overflow=hidden;fillColor=none;top=0;left=0;bottom=0;right=0;" parent="47" vertex="1"><mxGeometry x="546" width="274" height="29" as="geometry"/></mxCell><mxCell id="119" value="" style="shape=partialRectangle;html=1;whiteSpace=wrap;collapsible=0;dropTarget=0;pointerEvents=0;fillColor=none;top=0;left=0;bottom=0;right=0;points=[[0,0.5],[1,0.5]];portConstraint=eastwest;" parent="6" vertex="1"><mxGeometry y="347" width="820" height="28" as="geometry"/></mxCell><mxCell id="120" value="" style="shape=partialRectangle;html=1;whiteSpace=wrap;connectable=0;overflow=hidden;fillColor=none;top=0;left=0;bottom=0;right=0;" parent="119" vertex="1"><mxGeometry width="274" height="28" as="geometry"/></mxCell><mxCell id="121" value="" style="shape=partialRectangle;html=1;whiteSpace=wrap;connectable=0;overflow=hidden;fillColor=none;top=0;left=0;bottom=0;right=0;" parent="119" vertex="1"><mxGeometry x="274" width="272" height="28" as="geometry"/></mxCell><mxCell id="122" value="" style="shape=partialRectangle;html=1;whiteSpace=wrap;connectable=0;overflow=hidden;fillColor=none;top=0;left=0;bottom=0;right=0;" parent="119" vertex="1"><mxGeometry x="546" width="274" height="28" as="geometry"/></mxCell><mxCell id="123" value="" style="shape=partialRectangle;html=1;whiteSpace=wrap;collapsible=0;dropTarget=0;pointerEvents=0;fillColor=none;top=0;left=0;bottom=0;right=0;points=[[0,0.5],[1,0.5]];portConstraint=eastwest;" parent="6" vertex="1"><mxGeometry y="375" width="820" height="29" as="geometry"/></mxCell><mxCell id="124" value="" style="shape=partialRectangle;html=1;whiteSpace=wrap;connectable=0;overflow=hidden;fillColor=none;top=0;left=0;bottom=0;right=0;" parent="123" vertex="1"><mxGeometry width="274" height="29" as="geometry"/></mxCell><mxCell id="125" value="" style="shape=partialRectangle;html=1;whiteSpace=wrap;connectable=0;overflow=hidden;fillColor=none;top=0;left=0;bottom=0;right=0;" parent="123" vertex="1"><mxGeometry x="274" width="272" height="29" as="geometry"/></mxCell><mxCell id="126" value="" style="shape=partialRectangle;html=1;whiteSpace=wrap;connectable=0;overflow=hidden;fillColor=none;top=0;left=0;bottom=0;right=0;" parent="123" vertex="1"><mxGeometry x="546" width="274" height="29" as="geometry"/></mxCell><mxCell id="127" value="" style="shape=partialRectangle;html=1;whiteSpace=wrap;collapsible=0;dropTarget=0;pointerEvents=0;fillColor=none;top=0;left=0;bottom=0;right=0;points=[[0,0.5],[1,0.5]];portConstraint=eastwest;" parent="6" vertex="1"><mxGeometry y="404" width="820" height="28" as="geometry"/></mxCell><mxCell id="128" value="" style="shape=partialRectangle;html=1;whiteSpace=wrap;connectable=0;overflow=hidden;fillColor=none;top=0;left=0;bottom=0;right=0;" parent="127" vertex="1"><mxGeometry width="274" height="28" as="geometry"/></mxCell><mxCell id="129" value="" style="shape=partialRectangle;html=1;whiteSpace=wrap;connectable=0;overflow=hidden;fillColor=none;top=0;left=0;bottom=0;right=0;" parent="127" vertex="1"><mxGeometry x="274" width="272" height="28" as="geometry"/></mxCell><mxCell id="130" value="" style="shape=partialRectangle;html=1;whiteSpace=wrap;connectable=0;overflow=hidden;fillColor=none;top=0;left=0;bottom=0;right=0;" parent="127" vertex="1"><mxGeometry x="546" width="274" height="28" as="geometry"/></mxCell><mxCell id="131" value="" style="shape=partialRectangle;html=1;whiteSpace=wrap;collapsible=0;dropTarget=0;pointerEvents=0;fillColor=none;top=0;left=0;bottom=0;right=0;points=[[0,0.5],[1,0.5]];portConstraint=eastwest;" parent="6" vertex="1"><mxGeometry y="432" width="820" height="29" as="geometry"/></mxCell><mxCell id="132" value="" style="shape=partialRectangle;html=1;whiteSpace=wrap;connectable=0;overflow=hidden;fillColor=none;top=0;left=0;bottom=0;right=0;" parent="131" vertex="1"><mxGeometry width="274" height="29" as="geometry"/></mxCell><mxCell id="133" value="" style="shape=partialRectangle;html=1;whiteSpace=wrap;connectable=0;overflow=hidden;fillColor=none;top=0;left=0;bottom=0;right=0;" parent="131" vertex="1"><mxGeometry x="274" width="272" height="29" as="geometry"/></mxCell><mxCell id="134" value="" style="shape=partialRectangle;html=1;whiteSpace=wrap;connectable=0;overflow=hidden;fillColor=none;top=0;left=0;bottom=0;right=0;" parent="131" vertex="1"><mxGeometry x="546" width="274" height="29" as="geometry"/></mxCell><mxCell id="x8lS3_IG5x0d_vdqBzvw-23" value="" style="shape=table;html=1;whiteSpace=wrap;startSize=0;container=1;collapsible=0;childLayout=tableLayout;" parent="1" vertex="1"><mxGeometry x="10" y="1360" width="281" height="80" as="geometry"/></mxCell><mxCell id="x8lS3_IG5x0d_vdqBzvw-26" value="" style="shape=partialRectangle;html=1;whiteSpace=wrap;collapsible=0;dropTarget=0;pointerEvents=0;fillColor=none;top=0;left=0;bottom=0;right=0;points=[[0,0.5],[1,0.5]];portConstraint=eastwest;" parent="x8lS3_IG5x0d_vdqBzvw-23" vertex="1"><mxGeometry width="281" height="40" as="geometry"/></mxCell><mxCell id="x8lS3_IG5x0d_vdqBzvw-27" value="&lt;span style=&quot;text-align: justify ; text-indent: -24px&quot;&gt;Jouer à la bataille navale alors que la position des bateaux est codée dans le programme&lt;/span&gt;" style="shape=partialRectangle;html=1;whiteSpace=wrap;connectable=0;overflow=hidden;fillColor=none;top=0;left=0;bottom=0;right=0;" parent="x8lS3_IG5x0d_vdqBzvw-26" vertex="1"><mxGeometry width="281" height="40" as="geometry"/></mxCell><mxCell id="x8lS3_IG5x0d_vdqBzvw-28" value="" style="shape=partialRectangle;html=1;whiteSpace=wrap;collapsible=0;dropTarget=0;pointerEvents=0;fillColor=none;top=0;left=0;bottom=0;right=0;points=[[0,0.5],[1,0.5]];portConstraint=eastwest;" parent="x8lS3_IG5x0d_vdqBzvw-23" vertex="1"><mxGeometry y="40" width="281" height="40" as="geometry"/></mxCell><mxCell id="x8lS3_IG5x0d_vdqBzvw-29" value="&lt;span style=&quot;text-align: justify ; text-indent: -24px&quot;&gt;Afficher l’aide du jeu&lt;/span&gt;" style="shape=partialRectangle;html=1;whiteSpace=wrap;connectable=0;overflow=hidden;fillColor=none;top=0;left=0;bottom=0;right=0;" parent="x8lS3_IG5x0d_vdqBzvw-28" vertex="1"><mxGeometry width="281" height="40" as="geometry"/></mxCell><mxCell id="x8lS3_IG5x0d_vdqBzvw-12" value="" style="shape=table;html=1;whiteSpace=wrap;startSize=0;container=1;collapsible=0;childLayout=tableLayout;" parent="1" vertex="1"><mxGeometry x="510" y="1340.5" width="281" height="159" as="geometry"/></mxCell><mxCell id="x8lS3_IG5x0d_vdqBzvw-13" value="" style="shape=partialRectangle;html=1;whiteSpace=wrap;collapsible=0;dropTarget=0;pointerEvents=0;fillColor=none;top=0;left=0;bottom=0;right=0;points=[[0,0.5],[1,0.5]];portConstraint=eastwest;" parent="x8lS3_IG5x0d_vdqBzvw-12" vertex="1"><mxGeometry width="281" height="40" as="geometry"/></mxCell><mxCell id="x8lS3_IG5x0d_vdqBzvw-14" value="&lt;span style=&quot;text-indent: -24px&quot;&gt;S’authentifier en tant que joueur&lt;/span&gt;" style="shape=partialRectangle;html=1;whiteSpace=wrap;connectable=0;overflow=hidden;fillColor=none;top=0;left=0;bottom=0;right=0;" parent="x8lS3_IG5x0d_vdqBzvw-13" vertex="1"><mxGeometry width="281" height="40" as="geometry"/></mxCell><mxCell id="x8lS3_IG5x0d_vdqBzvw-15" value="" style="shape=partialRectangle;html=1;whiteSpace=wrap;collapsible=0;dropTarget=0;pointerEvents=0;fillColor=none;top=0;left=0;bottom=0;right=0;points=[[0,0.5],[1,0.5]];portConstraint=eastwest;" parent="x8lS3_IG5x0d_vdqBzvw-12" vertex="1"><mxGeometry y="40" width="281" height="38" as="geometry"/></mxCell><mxCell id="x8lS3_IG5x0d_vdqBzvw-16" value="&lt;span style=&quot;text-indent: -18pt&quot;&gt;Logger les faits importants durant toute la&amp;nbsp;&lt;/span&gt;&lt;span style=&quot;text-indent: -18pt&quot;&gt;durée de fonctionnement de l’application&lt;/span&gt;" style="shape=partialRectangle;html=1;whiteSpace=wrap;connectable=0;overflow=hidden;fillColor=none;top=0;left=0;bottom=0;right=0;" parent="x8lS3_IG5x0d_vdqBzvw-15" vertex="1"><mxGeometry width="281" height="38" as="geometry"/></mxCell><mxCell id="x8lS3_IG5x0d_vdqBzvw-17" value="" style="shape=partialRectangle;html=1;whiteSpace=wrap;collapsible=0;dropTarget=0;pointerEvents=0;fillColor=none;top=0;left=0;bottom=0;right=0;points=[[0,0.5],[1,0.5]];portConstraint=eastwest;" parent="x8lS3_IG5x0d_vdqBzvw-12" vertex="1"><mxGeometry y="78" width="281" height="41" as="geometry"/></mxCell><mxCell id="x8lS3_IG5x0d_vdqBzvw-18" value="&lt;span style=&quot;text-indent: -18pt&quot;&gt;Le programme choisit une grille au hasard dans&amp;nbsp;&lt;/span&gt;&lt;span style=&quot;text-indent: -18pt&quot;&gt;un répertoire et la charge&lt;/span&gt;" style="shape=partialRectangle;html=1;whiteSpace=wrap;connectable=0;overflow=hidden;fillColor=none;top=0;left=0;bottom=0;right=0;" parent="x8lS3_IG5x0d_vdqBzvw-17" vertex="1"><mxGeometry width="281" height="41" as="geometry"/></mxCell><mxCell id="x8lS3_IG5x0d_vdqBzvw-19" value="" style="shape=partialRectangle;html=1;whiteSpace=wrap;collapsible=0;dropTarget=0;pointerEvents=0;fillColor=none;top=0;left=0;bottom=0;right=0;points=[[0,0.5],[1,0.5]];portConstraint=eastwest;" parent="x8lS3_IG5x0d_vdqBzvw-12" vertex="1"><mxGeometry y="119" width="281" height="40" as="geometry"/></mxCell><mxCell id="x8lS3_IG5x0d_vdqBzvw-20" value="&lt;span style=&quot;text-indent: -18pt&quot;&gt;Afficher la liste des scores atteints lors des&amp;nbsp;&lt;/span&gt;&lt;span style=&quot;text-indent: -18pt&quot;&gt;parties précédentes&lt;/span&gt;" style="shape=partialRectangle;html=1;whiteSpace=wrap;connectable=0;overflow=hidden;fillColor=none;top=0;left=0;bottom=0;right=0;" parent="x8lS3_IG5x0d_vdqBzvw-19" vertex="1"><mxGeometry width="281" height="40" as="geometry"/></mxCell><mxCell id="138" value="" style="group" parent="1" vertex="1" connectable="0"><mxGeometry x="30" y="280" width="160" height="120" as="geometry"/></mxCell><mxCell id="139" value="" style="rounded=0;whiteSpace=wrap;html=1;" parent="138" vertex="1"><mxGeometry width="160" height="120" as="geometry"/></mxCell><mxCell id="140" value="" style="rounded=0;whiteSpace=wrap;html=1;" parent="138" vertex="1"><mxGeometry width="160" height="30" as="geometry"/></mxCell><mxCell id="141" value="&lt;font style=&quot;font-size: 18px&quot;&gt;Scores&lt;/font&gt;" style="text;html=1;strokeColor=none;fillColor=none;align=center;verticalAlign=middle;whiteSpace=wrap;rounded=0;" parent="138" vertex="1"><mxGeometry x="60" y="5" width="40" height="20" as="geometry"/></mxCell><mxCell id="142" value="Nom&lt;br&gt;Point" style="text;html=1;strokeColor=none;fillColor=none;align=center;verticalAlign=middle;whiteSpace=wrap;rounded=0;" parent="138" vertex="1"><mxGeometry x="10" y="40" width="40" height="20" as="geometry"/></mxCell><mxCell id="143" value="Texte&lt;br&gt;Num" style="text;html=1;strokeColor=none;fillColor=none;align=center;verticalAlign=middle;whiteSpace=wrap;rounded=0;" parent="138" vertex="1"><mxGeometry x="110" y="40" width="40" height="20" as="geometry"/></mxCell><mxCell id="144" value="" style="group" parent="1" vertex="1" connectable="0"><mxGeometry x="175" y="450" width="200" height="120" as="geometry"/></mxCell><mxCell id="145" value="" style="rounded=0;whiteSpace=wrap;html=1;" parent="144" vertex="1"><mxGeometry width="200" height="120" as="geometry"/></mxCell><mxCell id="146" value="" style="rounded=0;whiteSpace=wrap;html=1;" parent="144" vertex="1"><mxGeometry width="200" height="30" as="geometry"/></mxCell><mxCell id="147" value="&lt;font style=&quot;font-size: 18px&quot;&gt;Grille&lt;/font&gt;" style="text;html=1;strokeColor=none;fillColor=none;align=center;verticalAlign=middle;whiteSpace=wrap;rounded=0;" parent="144" vertex="1"><mxGeometry x="80" y="5" width="40" height="20" as="geometry"/></mxCell><mxCell id="148" value="CordonnéesBateau" style="text;html=1;strokeColor=none;fillColor=none;align=center;verticalAlign=middle;whiteSpace=wrap;rounded=0;" parent="144" vertex="1"><mxGeometry x="40" y="40" width="40" height="20" as="geometry"/></mxCell><mxCell id="149" value="Texte" style="text;html=1;strokeColor=none;fillColor=none;align=center;verticalAlign=middle;whiteSpace=wrap;rounded=0;" parent="144" vertex="1"><mxGeometry x="154" y="40" width="40" height="20" as="geometry"/></mxCell><mxCell id="150" value="" style="group" parent="1" vertex="1" connectable="0"><mxGeometry x="598" y="320" width="160" height="110" as="geometry"/></mxCell><mxCell id="151" value="" style="rounded=0;whiteSpace=wrap;html=1;" parent="150" vertex="1"><mxGeometry width="160" height="110" as="geometry"/></mxCell><mxCell id="152" value="" style="rounded=0;whiteSpace=wrap;html=1;" parent="150" vertex="1"><mxGeometry width="160" height="23.57142857142857" as="geometry"/></mxCell><mxCell id="153" value="&lt;font style=&quot;font-size: 18px&quot;&gt;Bateaux&lt;/font&gt;" style="text;html=1;strokeColor=none;fillColor=none;align=center;verticalAlign=middle;whiteSpace=wrap;rounded=0;" parent="150" vertex="1"><mxGeometry x="60.95238095238095" y="3.9285714285714284" width="30.476190476190474" height="15.714285714285714" as="geometry"/></mxCell><mxCell id="154" value="&lt;u&gt;Nom&lt;/u&gt;&lt;br&gt;" style="text;html=1;strokeColor=none;fillColor=none;align=center;verticalAlign=middle;whiteSpace=wrap;rounded=0;" parent="150" vertex="1"><mxGeometry x="7.619047619047619" y="31.428571428571427" width="30.476190476190474" height="15.714285714285714" as="geometry"/></mxCell><mxCell id="155" value="Texte" style="text;html=1;strokeColor=none;fillColor=none;align=center;verticalAlign=middle;whiteSpace=wrap;rounded=0;" parent="150" vertex="1"><mxGeometry x="114.28571428571428" y="31.428571428571427" width="30.476190476190474" height="15.714285714285714" as="geometry"/></mxCell><mxCell id="156" value="" style="group" parent="1" vertex="1" connectable="0"><mxGeometry x="40" y="60" width="150" height="60" as="geometry"/></mxCell><mxCell id="157" value="" style="rounded=0;whiteSpace=wrap;html=1;" parent="156" vertex="1"><mxGeometry y="1.6216216216216217" width="150" height="58.37837837837838" as="geometry"/></mxCell><mxCell id="158" value="" style="rounded=0;whiteSpace=wrap;html=1;" parent="156" vertex="1"><mxGeometry width="150" height="20" as="geometry"/></mxCell><mxCell id="159" value="&lt;font style=&quot;font-size: 18px&quot;&gt;Joueurs&lt;/font&gt;" style="text;html=1;strokeColor=none;fillColor=none;align=center;verticalAlign=middle;whiteSpace=wrap;rounded=0;" parent="156" vertex="1"><mxGeometry x="59.21052631578947" y="4.621621621621622" width="31.578947368421055" height="6.486486486486487" as="geometry"/></mxCell><mxCell id="160" value="&lt;u&gt;Pseudo&lt;/u&gt;" style="text;html=1;strokeColor=none;fillColor=none;align=center;verticalAlign=middle;whiteSpace=wrap;rounded=0;" parent="156" vertex="1"><mxGeometry x="7.894736842105264" y="25.351351351351354" width="31.578947368421055" height="6.486486486486487" as="geometry"/></mxCell><mxCell id="161" value="Texte" style="text;html=1;strokeColor=none;fillColor=none;align=center;verticalAlign=middle;whiteSpace=wrap;rounded=0;" parent="156" vertex="1"><mxGeometry x="102.63157894736842" y="26.351351351351354" width="31.578947368421055" height="6.486486486486487" as="geometry"/></mxCell><mxCell id="162" value="" style="rounded=1;whiteSpace=wrap;html=1;" parent="1" vertex="1"><mxGeometry x="30" y="190" width="160" height="60" as="geometry"/></mxCell><mxCell id="163" value="" style="endArrow=none;html=1;exitX=0;exitY=0.25;exitDx=0;exitDy=0;entryX=1;entryY=0.25;entryDx=0;entryDy=0;" parent="1" source="162" target="162" edge="1"><mxGeometry width="50" height="50" relative="1" as="geometry"><mxPoint x="330" y="280" as="sourcePoint"/><mxPoint x="380" y="230" as="targetPoint"/></mxGeometry></mxCell><mxCell id="164" value="Avoir" style="text;html=1;align=center;verticalAlign=middle;resizable=0;points=[];autosize=1;" parent="1" vertex="1"><mxGeometry x="92" y="189" width="40" height="20" as="geometry"/></mxCell><mxCell id="165" value="" style="endArrow=none;html=1;exitX=0.5;exitY=1;exitDx=0;exitDy=0;entryX=0.5;entryY=0;entryDx=0;entryDy=0;" parent="1" source="157" target="162" edge="1"><mxGeometry width="50" height="50" relative="1" as="geometry"><mxPoint x="330" y="280" as="sourcePoint"/><mxPoint x="380" y="230" as="targetPoint"/></mxGeometry></mxCell><mxCell id="166" value="" style="endArrow=none;html=1;exitX=0.25;exitY=1;exitDx=0;exitDy=0;entryX=0.25;entryY=0;entryDx=0;entryDy=0;" parent="1" source="162" target="140" edge="1"><mxGeometry width="50" height="50" relative="1" as="geometry"><mxPoint x="125" y="130" as="sourcePoint"/><mxPoint x="120" y="200" as="targetPoint"/></mxGeometry></mxCell><mxCell id="167" value="" style="group" parent="1" vertex="1" connectable="0"><mxGeometry x="360" y="35" width="160" height="110" as="geometry"/></mxCell><mxCell id="168" value="" style="rounded=0;whiteSpace=wrap;html=1;" parent="167" vertex="1"><mxGeometry width="160" height="110" as="geometry"/></mxCell><mxCell id="169" value="" style="rounded=0;whiteSpace=wrap;html=1;" parent="167" vertex="1"><mxGeometry width="160" height="23.57142857142857" as="geometry"/></mxCell><mxCell id="170" value="&lt;font style=&quot;font-size: 18px&quot;&gt;Missile&lt;/font&gt;" style="text;html=1;strokeColor=none;fillColor=none;align=center;verticalAlign=middle;whiteSpace=wrap;rounded=0;" parent="167" vertex="1"><mxGeometry x="60.95238095238095" y="3.9285714285714284" width="30.476190476190474" height="15.714285714285714" as="geometry"/></mxCell><mxCell id="171" value="&lt;u&gt;Nom&lt;/u&gt;&lt;br&gt;" style="text;html=1;strokeColor=none;fillColor=none;align=center;verticalAlign=middle;whiteSpace=wrap;rounded=0;" parent="167" vertex="1"><mxGeometry x="7.619047619047619" y="31.428571428571427" width="30.476190476190474" height="15.714285714285714" as="geometry"/></mxCell><mxCell id="172" value="Texte" style="text;html=1;strokeColor=none;fillColor=none;align=center;verticalAlign=middle;whiteSpace=wrap;rounded=0;" parent="167" vertex="1"><mxGeometry x="114.28571428571428" y="31.428571428571427" width="30.476190476190474" height="15.714285714285714" as="geometry"/></mxCell><mxCell id="173" value="" style="group" parent="1" vertex="1" connectable="0"><mxGeometry x="220" y="70" width="110" height="40" as="geometry"/></mxCell><mxCell id="174" value="" style="rounded=1;whiteSpace=wrap;html=1;" parent="173" vertex="1"><mxGeometry width="110" height="40" as="geometry"/></mxCell><mxCell id="175" value="tirer" style="text;html=1;align=center;verticalAlign=middle;resizable=0;points=[];autosize=1;" parent="173" vertex="1"><mxGeometry x="39" y="2" width="40" height="20" as="geometry"/></mxCell><mxCell id="176" value="" style="endArrow=none;html=1;exitX=0;exitY=0.5;exitDx=0;exitDy=0;entryX=1;entryY=0.5;entryDx=0;entryDy=0;" parent="173" source="174" target="174" edge="1"><mxGeometry width="50" height="50" relative="1" as="geometry"><mxPoint x="110" y="210" as="sourcePoint"/><mxPoint x="160" y="160" as="targetPoint"/></mxGeometry></mxCell><mxCell id="177" value="" style="endArrow=none;html=1;exitX=0;exitY=0.5;exitDx=0;exitDy=0;entryX=1;entryY=0.75;entryDx=0;entryDy=0;" parent="1" source="168" target="174" edge="1"><mxGeometry width="50" height="50" relative="1" as="geometry"><mxPoint x="345" y="110" as="sourcePoint"/><mxPoint x="340" y="180" as="targetPoint"/></mxGeometry></mxCell><mxCell id="178" value="" style="endArrow=none;html=1;exitX=0;exitY=0.75;exitDx=0;exitDy=0;entryX=1;entryY=0.5;entryDx=0;entryDy=0;" parent="1" source="174" target="157" edge="1"><mxGeometry width="50" height="50" relative="1" as="geometry"><mxPoint x="135" y="140" as="sourcePoint"/><mxPoint x="130" y="210" as="targetPoint"/></mxGeometry></mxCell><mxCell id="187" value="" style="endArrow=none;html=1;entryX=0;entryY=0.5;entryDx=0;entryDy=0;exitX=1;exitY=0.75;exitDx=0;exitDy=0;" parent="1" source="168" target="209" edge="1"><mxGeometry width="50" height="50" relative="1" as="geometry"><mxPoint x="530" y="100" as="sourcePoint"/><mxPoint x="620" y="125" as="targetPoint"/><Array as="points"/></mxGeometry></mxCell><mxCell id="188" value="" style="endArrow=none;html=1;entryX=0.25;entryY=1;entryDx=0;entryDy=0;exitX=1;exitY=0.5;exitDx=0;exitDy=0;" parent="1" source="197" target="209" edge="1"><mxGeometry width="50" height="50" relative="1" as="geometry"><mxPoint x="700" y="160" as="sourcePoint"/><mxPoint x="580" y="200" as="targetPoint"/><Array as="points"><mxPoint x="600" y="280"/></Array></mxGeometry></mxCell><mxCell id="189" value="" style="rounded=1;whiteSpace=wrap;html=1;" parent="1" vertex="1"><mxGeometry x="438" y="470" width="160" height="70" as="geometry"/></mxCell><mxCell id="190" value="&lt;font style=&quot;font-size: 18px&quot;&gt;placer&lt;/font&gt;" style="text;html=1;strokeColor=none;fillColor=none;align=center;verticalAlign=middle;whiteSpace=wrap;rounded=0;" parent="1" vertex="1"><mxGeometry x="498" y="470" width="40" height="14" as="geometry"/></mxCell><mxCell id="191" value="" style="endArrow=none;html=1;exitX=0;exitY=0.25;exitDx=0;exitDy=0;entryX=1;entryY=0.25;entryDx=0;entryDy=0;" parent="1" source="189" target="189" edge="1"><mxGeometry width="50" height="50" relative="1" as="geometry"><mxPoint x="438" y="484.7" as="sourcePoint"/><mxPoint x="598" y="484.7" as="targetPoint"/><Array as="points"/></mxGeometry></mxCell><mxCell id="192" value="" style="endArrow=none;html=1;entryX=0.5;entryY=1;entryDx=0;entryDy=0;exitX=1;exitY=0.5;exitDx=0;exitDy=0;" parent="1" source="189" target="151" edge="1"><mxGeometry width="50" height="50" relative="1" as="geometry"><mxPoint x="330" y="280" as="sourcePoint"/><mxPoint x="380" y="230" as="targetPoint"/><Array as="points"><mxPoint x="678" y="500"/></Array></mxGeometry></mxCell><mxCell id="193" value="" style="endArrow=none;html=1;exitX=1;exitY=0.5;exitDx=0;exitDy=0;entryX=0;entryY=0.5;entryDx=0;entryDy=0;" parent="1" source="145" target="189" edge="1"><mxGeometry width="50" height="50" relative="1" as="geometry"><mxPoint x="330" y="280" as="sourcePoint"/><mxPoint x="380" y="230" as="targetPoint"/></mxGeometry></mxCell><mxCell id="196" value="" style="group" parent="1" vertex="1" connectable="0"><mxGeometry x="298" y="220" width="200" height="120" as="geometry"/></mxCell><mxCell id="197" value="" style="rounded=0;whiteSpace=wrap;html=1;" parent="196" vertex="1"><mxGeometry width="200" height="120" as="geometry"/></mxCell><mxCell id="198" value="" style="rounded=0;whiteSpace=wrap;html=1;" parent="196" vertex="1"><mxGeometry width="200" height="30" as="geometry"/></mxCell><mxCell id="199" value="&lt;font style=&quot;font-size: 18px&quot;&gt;Case&lt;/font&gt;" style="text;html=1;strokeColor=none;fillColor=none;align=center;verticalAlign=middle;whiteSpace=wrap;rounded=0;" parent="196" vertex="1"><mxGeometry x="80" y="5" width="40" height="20" as="geometry"/></mxCell><mxCell id="213" value="contenue" style="text;html=1;align=center;verticalAlign=middle;resizable=0;points=[];autosize=1;" parent="196" vertex="1"><mxGeometry y="40" width="70" height="20" as="geometry"/></mxCell><mxCell id="214" value="enum" style="text;html=1;align=center;verticalAlign=middle;resizable=0;points=[];autosize=1;" parent="196" vertex="1"><mxGeometry x="150" y="40" width="50" height="20" as="geometry"/></mxCell><mxCell id="202" value="" style="endArrow=none;html=1;exitX=0.75;exitY=0;exitDx=0;exitDy=0;" parent="1" source="146" edge="1"><mxGeometry width="50" height="50" relative="1" as="geometry"><mxPoint x="490" y="390" as="sourcePoint"/><mxPoint x="325" y="420" as="targetPoint"/></mxGeometry></mxCell><mxCell id="206" value="" style="group" parent="1" vertex="1" connectable="0"><mxGeometry x="282" y="364" width="160" height="70" as="geometry"/></mxCell><mxCell id="203" value="" style="rounded=1;whiteSpace=wrap;html=1;" parent="206" vertex="1"><mxGeometry width="160" height="70" as="geometry"/></mxCell><mxCell id="204" value="&lt;font style=&quot;font-size: 18px&quot;&gt;posseder&lt;/font&gt;" style="text;html=1;strokeColor=none;fillColor=none;align=center;verticalAlign=middle;whiteSpace=wrap;rounded=0;" parent="206" vertex="1"><mxGeometry x="60" width="40" height="14" as="geometry"/></mxCell><mxCell id="205" value="" style="endArrow=none;html=1;exitX=0;exitY=0.25;exitDx=0;exitDy=0;entryX=1;entryY=0.25;entryDx=0;entryDy=0;" parent="206" source="203" target="203" edge="1"><mxGeometry width="50" height="50" relative="1" as="geometry"><mxPoint y="14.699999999999989" as="sourcePoint"/><mxPoint x="160" y="14.699999999999989" as="targetPoint"/><Array as="points"/></mxGeometry></mxCell><mxCell id="207" value="" style="endArrow=none;html=1;exitX=0.5;exitY=1;exitDx=0;exitDy=0;entryX=0.75;entryY=0;entryDx=0;entryDy=0;" parent="1" source="197" target="203" edge="1"><mxGeometry width="50" height="50" relative="1" as="geometry"><mxPoint x="385" y="520" as="sourcePoint"/><mxPoint x="448" y="515" as="targetPoint"/></mxGeometry></mxCell><mxCell id="212" value="" style="group" parent="1" vertex="1" connectable="0"><mxGeometry x="570" y="110" width="160" height="70" as="geometry"/></mxCell><mxCell id="209" value="" style="rounded=1;whiteSpace=wrap;html=1;" parent="212" vertex="1"><mxGeometry width="160" height="70" as="geometry"/></mxCell><mxCell id="195" value="atterire" style="text;html=1;align=center;verticalAlign=middle;resizable=0;points=[];autosize=1;" parent="212" vertex="1"><mxGeometry x="55" width="50" height="20" as="geometry"/></mxCell><mxCell id="211" value="" style="endArrow=none;html=1;exitX=0;exitY=0.25;exitDx=0;exitDy=0;entryX=1;entryY=0.25;entryDx=0;entryDy=0;" parent="212" source="209" target="209" edge="1"><mxGeometry width="50" height="50" relative="1" as="geometry"><mxPoint x="530" y="234.7" as="sourcePoint"/><mxPoint x="690" y="234.7" as="targetPoint"/><Array as="points"/></mxGeometry></mxCell><mxCell id="215" value="reaction" style="text;html=1;align=center;verticalAlign=middle;resizable=0;points=[];autosize=1;" vertex="1" parent="212"><mxGeometry y="25" width="60" height="20" as="geometry"/></mxCell><mxCell id="216" value="enum" style="text;html=1;align=center;verticalAlign=middle;resizable=0;points=[];autosize=1;" vertex="1" parent="212"><mxGeometry x="105" y="25" width="50" height="20" as="geometry"/></mxCell></root></mxGraphModel></diagram></mxfile>